<svg xmlns="http://www.w3.org/2000/svg" xmlns:xlink="http://www.w3.org/1999/xlink" width="288" zoomAndPan="magnify" viewBox="0 0 216 215.999996" height="288" preserveAspectRatio="xMidYMid meet" version="1.0"><defs><clipPath id="e86c6a1b7f"><path d="M 0.800781 0.800781 L 87.199219 0.800781 L 87.199219 87.199219 L 0.800781 87.199219 Z M 0.800781 0.800781 " clip-rule="nonzero"/></clipPath><clipPath id="1f0d16edab"><rect x="0" width="88" y="0" height="88"/></clipPath></defs><rect x="-21.6" width="259.2" fill="#ffffff" y="-21.6" height="259.199995" fill-opacity="1"/><rect x="-21.6" width="259.2" fill="#ffffff" y="-21.6" height="259.199995" fill-opacity="1"/><g transform="matrix(1, 0, 0, 1, 64, 64)"><g clip-path="url(#1f0d16edab)"><g clip-path="url(#e86c6a1b7f)"><path fill="#ffffff" d="M 0.800781 0.800781 L 87.199219 0.800781 L 87.199219 87.199219 L 0.800781 87.199219 Z M 0.800781 0.800781 " fill-opacity="1" fill-rule="nonzero"/></g><path stroke-linecap="butt" transform="matrix(2.97931, 0, 0, 2.97931, 0.799998, 0.799996)" fill-opacity="1" fill="#ffffff" fill-rule="nonzero" stroke-linejoin="miter" d="M 1.99973 2.50058 L 8.99983 2.50058 M 11.000608 2.50058 L 13.000074 2.50058 M 17.999397 2.50058 L 18.999786 2.50058 M 20.000174 2.50058 L 27.000275 2.50058 M 1.99973 3.499658 L 3.000118 3.499658 M 7.999441 3.499658 L 8.99983 3.499658 M 11.999685 3.499658 L 14.999541 3.499658 M 15.99993 3.499658 L 18.999786 3.499658 M 20.000174 3.499658 L 21.000563 3.499658 M 25.999886 3.499658 L 27.000275 3.499658 M 1.99973 4.500047 L 3.000118 4.500047 M 4.000507 4.500047 L 7.000363 4.500047 M 7.999441 4.500047 L 8.99983 4.500047 M 10.000219 4.500047 L 11.000608 4.500047 M 11.999685 4.500047 L 13.000074 4.500047 M 14.000463 4.500047 L 14.999541 4.500047 M 15.99993 4.500047 L 17.999397 4.500047 M 20.000174 4.500047 L 21.000563 4.500047 M 21.999641 4.500047 L 24.999497 4.500047 M 25.999886 4.500047 L 27.000275 4.500047 M 1.99973 5.500436 L 3.000118 5.500436 M 4.000507 5.500436 L 7.000363 5.500436 M 7.999441 5.500436 L 8.99983 5.500436 M 10.000219 5.500436 L 11.000608 5.500436 M 11.999685 5.500436 L 13.000074 5.500436 M 14.999541 5.500436 L 17.000319 5.500436 M 20.000174 5.500436 L 21.000563 5.500436 M 21.999641 5.500436 L 24.999497 5.500436 M 25.999886 5.500436 L 27.000275 5.500436 M 1.99973 6.499514 L 3.000118 6.499514 M 4.000507 6.499514 L 7.000363 6.499514 M 7.999441 6.499514 L 8.99983 6.499514 M 10.000219 6.499514 L 11.999685 6.499514 M 13.000074 6.499514 L 15.99993 6.499514 M 17.999397 6.499514 L 18.999786 6.499514 M 20.000174 6.499514 L 21.000563 6.499514 M 21.999641 6.499514 L 24.999497 6.499514 M 25.999886 6.499514 L 27.000275 6.499514 M 1.99973 7.499903 L 3.000118 7.499903 M 7.999441 7.499903 L 8.99983 7.499903 M 10.000219 7.499903 L 11.000608 7.499903 M 11.999685 7.499903 L 14.000463 7.499903 M 15.99993 7.499903 L 17.999397 7.499903 M 20.000174 7.499903 L 21.000563 7.499903 M 25.999886 7.499903 L 27.000275 7.499903 M 1.99973 8.500292 L 8.99983 8.500292 M 10.000219 8.500292 L 11.000608 8.500292 M 11.999685 8.500292 L 13.000074 8.500292 M 14.000463 8.500292 L 14.999541 8.500292 M 15.99993 8.500292 L 17.000319 8.500292 M 17.999397 8.500292 L 18.999786 8.500292 M 20.000174 8.500292 L 27.000275 8.500292 M 10.000219 9.499369 L 11.000608 9.499369 M 13.000074 9.499369 L 14.000463 9.499369 M 17.999397 9.499369 L 18.999786 9.499369 M 1.99973 10.499758 L 3.000118 10.499758 M 4.000507 10.499758 L 8.99983 10.499758 M 11.000608 10.499758 L 11.999685 10.499758 M 14.999541 10.499758 L 17.999397 10.499758 M 20.000174 10.499758 L 24.999497 10.499758 M 1.99973 11.500147 L 3.000118 11.500147 M 4.999585 11.500147 L 5.999974 11.500147 M 7.000363 11.500147 L 7.999441 11.500147 M 8.99983 11.500147 L 14.999541 11.500147 M 17.999397 11.500147 L 18.999786 11.500147 M 21.000563 11.500147 L 21.999641 11.500147 M 1.99973 12.500536 L 3.000118 12.500536 M 4.000507 12.500536 L 5.999974 12.500536 M 7.000363 12.500536 L 8.99983 12.500536 M 11.000608 12.500536 L 11.999685 12.500536 M 13.000074 12.500536 L 14.000463 12.500536 M 15.99993 12.500536 L 20.000174 12.500536 M 24.000419 12.500536 L 27.000275 12.500536 M 3.000118 13.499614 L 4.999585 13.499614 M 11.999685 13.499614 L 13.000074 13.499614 M 14.000463 13.499614 L 14.999541 13.499614 M 17.000319 13.499614 L 18.999786 13.499614 M 20.000174 13.499614 L 23.00003 13.499614 M 24.999497 13.499614 L 27.000275 13.499614 M 1.99973 14.500003 L 3.000118 14.500003 M 4.000507 14.500003 L 5.999974 14.500003 M 7.000363 14.500003 L 11.000608 14.500003 M 11.999685 14.500003 L 13.000074 14.500003 M 14.999541 14.500003 L 15.99993 14.500003 M 20.000174 14.500003 L 21.000563 14.500003 M 21.999641 14.500003 L 24.999497 14.500003 M 25.999886 14.500003 L 27.000275 14.500003 M 1.99973 15.500392 L 3.000118 15.500392 M 4.000507 15.500392 L 7.000363 15.500392 M 8.99983 15.500392 L 10.000219 15.500392 M 14.000463 15.500392 L 15.99993 15.500392 M 17.999397 15.500392 L 18.999786 15.500392 M 21.000563 15.500392 L 21.999641 15.500392 M 23.00003 15.500392 L 24.999497 15.500392 M 1.99973 16.49947 L 3.000118 16.49947 M 4.000507 16.49947 L 4.999585 16.49947 M 7.999441 16.49947 L 10.000219 16.49947 M 14.999541 16.49947 L 20.000174 16.49947 M 21.000563 16.49947 L 21.999641 16.49947 M 24.999497 16.49947 L 27.000275 16.49947 M 1.99973 17.499858 L 3.000118 17.499858 M 4.000507 17.499858 L 7.999441 17.499858 M 11.999685 17.499858 L 13.000074 17.499858 M 14.000463 17.499858 L 14.999541 17.499858 M 17.000319 17.499858 L 17.999397 17.499858 M 24.999497 17.499858 L 27.000275 17.499858 M 1.99973 18.500247 L 3.000118 18.500247 M 4.000507 18.500247 L 4.999585 18.500247 M 7.000363 18.500247 L 10.000219 18.500247 M 11.999685 18.500247 L 13.000074 18.500247 M 14.000463 18.500247 L 25.999886 18.500247 M 10.000219 19.500636 L 11.000608 19.500636 M 14.999541 19.500636 L 15.99993 19.500636 M 17.000319 19.500636 L 18.999786 19.500636 M 21.999641 19.500636 L 24.000419 19.500636 M 1.99973 20.499714 L 8.99983 20.499714 M 13.000074 20.499714 L 17.000319 20.499714 M 17.999397 20.499714 L 18.999786 20.499714 M 20.000174 20.499714 L 21.000563 20.499714 M 21.999641 20.499714 L 23.00003 20.499714 M 24.000419 20.499714 L 27.000275 20.499714 M 1.99973 21.500103 L 3.000118 21.500103 M 7.999441 21.500103 L 8.99983 21.500103 M 10.000219 21.500103 L 14.000463 21.500103 M 15.99993 21.500103 L 17.000319 21.500103 M 17.999397 21.500103 L 18.999786 21.500103 M 21.999641 21.500103 L 24.000419 21.500103 M 25.999886 21.500103 L 27.000275 21.500103 M 1.99973 22.500492 L 3.000118 22.500492 M 4.000507 22.500492 L 7.000363 22.500492 M 7.999441 22.500492 L 8.99983 22.500492 M 10.000219 22.500492 L 11.000608 22.500492 M 13.000074 22.500492 L 23.00003 22.500492 M 24.000419 22.500492 L 24.999497 22.500492 M 1.99973 23.49957 L 3.000118 23.49957 M 4.000507 23.49957 L 7.000363 23.49957 M 7.999441 23.49957 L 8.99983 23.49957 M 10.000219 23.49957 L 13.000074 23.49957 M 14.000463 23.49957 L 14.999541 23.49957 M 15.99993 23.49957 L 17.999397 23.49957 M 18.999786 23.49957 L 21.000563 23.49957 M 21.999641 23.49957 L 27.000275 23.49957 M 1.99973 24.499959 L 3.000118 24.499959 M 4.000507 24.499959 L 7.000363 24.499959 M 7.999441 24.499959 L 8.99983 24.499959 M 10.000219 24.499959 L 11.000608 24.499959 M 11.999685 24.499959 L 13.000074 24.499959 M 14.999541 24.499959 L 15.99993 24.499959 M 21.000563 24.499959 L 21.999641 24.499959 M 23.00003 24.499959 L 24.000419 24.499959 M 25.999886 24.499959 L 27.000275 24.499959 M 1.99973 25.500348 L 3.000118 25.500348 M 7.999441 25.500348 L 8.99983 25.500348 M 11.999685 25.500348 L 14.000463 25.500348 M 17.000319 25.500348 L 18.999786 25.500348 M 20.000174 25.500348 L 21.000563 25.500348 M 21.999641 25.500348 L 23.00003 25.500348 M 25.999886 25.500348 L 27.000275 25.500348 M 1.99973 26.499425 L 8.99983 26.499425 M 10.000219 26.499425 L 11.000608 26.499425 M 11.999685 26.499425 L 13.000074 26.499425 M 14.000463 26.499425 L 17.000319 26.499425 M 18.999786 26.499425 L 21.000563 26.499425 M 23.00003 26.499425 L 27.000275 26.499425 " stroke="#000000" stroke-width="1" stroke-opacity="1" stroke-miterlimit="4"/></g></g></svg>